<svg data-v-fde0c5aa="" xmlns="http://www.w3.org/2000/svg" viewBox="0 0 300 300" class="iconLeftSlogan"><!----><defs data-v-fde0c5aa=""><!----></defs><rect data-v-fde0c5aa="" fill="#000000" x="0" y="0" width="300px" height="300px" class="logo-background-square"></rect><defs data-v-fde0c5aa=""><!----></defs><g data-v-fde0c5aa="" id="b82979fd-f42a-4a65-bc51-2fbe1c6882b5" fill="#FFFFFF" transform="matrix(1.8307584610268024,0,0,1.8307584610268024,104.95306364844913,117.88443880344569)"><path d="M1.22 15.68L1.22 5.88L2.39 5.88L2.39 14.59L7.52 14.59L7.52 15.68L1.22 15.68ZM14.74 12.35L14.74 8.74L15.83 8.74L15.83 15.68L14.74 15.68L14.74 14.42L14.57 14.42L14.57 14.42Q14.24 15.09 13.69 15.48L13.69 15.48L13.69 15.48Q13.15 15.88 12.31 15.88L12.31 15.88L12.31 15.88Q11.73 15.88 11.25 15.69L11.25 15.69L11.25 15.69Q10.77 15.50 10.42 15.12L10.42 15.12L10.42 15.12Q10.08 14.74 9.89 14.18L9.89 14.18L9.89 14.18Q9.70 13.62 9.70 12.88L9.70 12.88L9.70 8.74L10.79 8.74L10.79 12.74L10.79 12.74Q10.79 13.83 11.24 14.34L11.24 14.34L11.24 14.34Q11.69 14.84 12.61 14.84L12.61 14.84L12.61 14.84Q13.61 14.84 14.18 14.16L14.18 14.16L14.18 14.16Q14.74 13.48 14.74 12.35L14.74 12.35ZM25.03 10.33L25.03 15.68L23.94 15.68L23.94 10.70L23.94 10.70Q23.94 10.21 23.72 9.89L23.72 9.89L23.72 9.89Q23.49 9.58 23.00 9.58L23.00 9.58L23.00 9.58Q22.54 9.58 22.25 9.92L22.25 9.92L22.25 9.92Q21.97 10.26 21.97 10.98L21.97 10.98L21.97 15.68L20.87 15.68L20.87 10.64L20.87 10.64Q20.87 10.18 20.62 9.88L20.62 9.88L20.62 9.88Q20.37 9.58 19.95 9.58L19.95 9.58L19.95 9.58Q19.45 9.58 19.17 9.94L19.17 9.94L19.17 9.94Q18.90 10.30 18.90 10.89L18.90 10.89L18.90 15.68L17.81 15.68L17.81 8.74L18.90 8.74L18.90 9.49L19.07 9.49L19.07 9.49Q19.25 9.00 19.60 8.77L19.60 8.77L19.60 8.77Q19.95 8.54 20.43 8.54L20.43 8.54L20.43 8.54Q20.93 8.54 21.26 8.81L21.26 8.81L21.26 8.81Q21.59 9.07 21.71 9.49L21.71 9.49L21.88 9.49L21.88 9.49Q22.36 8.54 23.39 8.54L23.39 8.54L23.39 8.54Q24.18 8.54 24.61 9.04L24.61 9.04L24.61 9.04Q25.03 9.53 25.03 10.33L25.03 10.33ZM27.76 14.62L27.76 15.68L26.67 15.68L26.67 5.88L27.76 5.88L27.76 9.83L27.93 9.83L27.93 9.83Q28.29 9.20 28.94 8.87L28.94 8.87L28.94 8.87Q29.58 8.54 30.34 8.54L30.34 8.54L30.34 8.54Q30.98 8.54 31.56 8.78L31.56 8.78L31.56 8.78Q32.13 9.02 32.57 9.46L32.57 9.46L32.57 9.46Q33.01 9.91 33.27 10.57L33.27 10.57L33.27 10.57Q33.53 11.23 33.53 12.07L33.53 12.07L33.53 12.35L33.53 12.35Q33.53 13.20 33.28 13.86L33.28 13.86L33.28 13.86Q33.03 14.52 32.59 14.97L32.59 14.97L32.59 14.97Q32.14 15.41 31.56 15.64L31.56 15.64L31.56 15.64Q30.97 15.88 30.31 15.88L30.31 15.88L30.31 15.88Q29.97 15.88 29.62 15.80L29.62 15.80L29.62 15.80Q29.27 15.72 28.96 15.56L28.96 15.56L28.96 15.56Q28.64 15.40 28.38 15.17L28.38 15.17L28.38 15.17Q28.11 14.94 27.93 14.62L27.93 14.62L27.76 14.62ZM30.09 14.84L30.09 14.84L30.09 14.84Q30.59 14.84 31.01 14.66L31.01 14.66L31.01 14.66Q31.43 14.49 31.75 14.17L31.75 14.17L31.75 14.17Q32.06 13.85 32.23 13.38L32.23 13.38L32.23 13.38Q32.41 12.92 32.41 12.35L32.41 12.35L32.41 12.07L32.41 12.07Q32.41 11.51 32.23 11.05L32.23 11.05L32.23 11.05Q32.06 10.60 31.75 10.27L31.75 10.27L31.75 10.27Q31.43 9.94 31.00 9.76L31.00 9.76L31.00 9.76Q30.58 9.58 30.09 9.58L30.09 9.58L30.09 9.58Q29.60 9.58 29.18 9.77L29.18 9.77L29.18 9.77Q28.76 9.95 28.44 10.29L28.44 10.29L28.44 10.29Q28.13 10.63 27.94 11.09L27.94 11.09L27.94 11.09Q27.76 11.56 27.76 12.12L27.76 12.12L27.76 12.29L27.76 12.29Q27.76 12.87 27.94 13.33L27.94 13.33L27.94 13.33Q28.13 13.80 28.44 14.14L28.44 14.14L28.44 14.14Q28.76 14.48 29.18 14.66L29.18 14.66L29.18 14.66Q29.60 14.84 30.09 14.84ZM41.89 12.54L36.29 12.54L36.29 12.54Q36.33 13.58 36.93 14.21L36.93 14.21L36.93 14.21Q37.53 14.84 38.61 14.84L38.61 14.84L38.61 14.84Q39.10 14.84 39.47 14.73L39.47 14.73L39.47 14.73Q39.83 14.62 40.09 14.42L40.09 14.42L40.09 14.42Q40.35 14.22 40.51 13.96L40.51 13.96L40.51 13.96Q40.67 13.71 40.77 13.41L40.77 13.41L41.80 13.69L41.80 13.69Q41.51 14.66 40.72 15.27L40.72 15.27L40.72 15.27Q39.93 15.88 38.58 15.88L38.58 15.88L38.58 15.88Q37.84 15.88 37.22 15.62L37.22 15.62L37.22 15.62Q36.60 15.36 36.15 14.88L36.15 14.88L36.15 14.88Q35.70 14.41 35.45 13.75L35.45 13.75L35.45 13.75Q35.20 13.09 35.20 12.29L35.20 12.29L35.20 11.96L35.20 11.96Q35.20 11.23 35.45 10.60L35.45 10.60L35.45 10.60Q35.71 9.97 36.18 9.51L36.18 9.51L36.18 9.51Q36.64 9.06 37.26 8.80L37.26 8.80L37.26 8.80Q37.88 8.54 38.61 8.54L38.61 8.54L38.61 8.54Q39.47 8.54 40.09 8.86L40.09 8.86L40.09 8.86Q40.71 9.17 41.11 9.63L41.11 9.63L41.11 9.63Q41.51 10.09 41.70 10.64L41.70 10.64L41.70 10.64Q41.89 11.19 41.89 11.65L41.89 11.65L41.89 12.54ZM38.61 9.58L38.61 9.58L38.61 9.58Q38.15 9.58 37.75 9.72L37.75 9.72L37.75 9.72Q37.35 9.87 37.05 10.14L37.05 10.14L37.05 10.14Q36.75 10.40 36.56 10.76L36.56 10.76L36.56 10.76Q36.37 11.12 36.32 11.54L36.32 11.54L40.80 11.54L40.80 11.54Q40.77 11.09 40.58 10.72L40.58 10.72L40.58 10.72Q40.39 10.36 40.09 10.11L40.09 10.11L40.09 10.11Q39.79 9.86 39.40 9.72L39.40 9.72L39.40 9.72Q39.02 9.58 38.61 9.58ZM43.67 9.74L43.67 8.74L46.19 8.74L46.19 9.66L46.35 9.66L46.35 9.66Q46.62 9.09 47.11 8.81L47.11 8.81L47.11 8.81Q47.60 8.54 48.23 8.54L48.23 8.54L48.23 8.54Q49.28 8.54 49.92 9.23L49.92 9.23L49.92 9.23Q50.57 9.91 50.61 11.23L50.61 11.23L49.46 11.40L49.46 11.40Q49.46 10.43 49 10.00L49 10.00L49 10.00Q48.54 9.58 47.87 9.58L47.87 9.58L47.87 9.58Q47.43 9.58 47.12 9.74L47.12 9.74L47.12 9.74Q46.80 9.91 46.59 10.21L46.59 10.21L46.59 10.21Q46.38 10.50 46.28 10.89L46.28 10.89L46.28 10.89Q46.19 11.28 46.19 11.73L46.19 11.73L46.19 14.67L47.95 14.67L47.95 15.68L43.50 15.68L43.50 14.67L45.09 14.67L45.09 9.74L43.67 9.74ZM55.71 6.66L55.71 6.66L55.71 6.66Q55.71 6.26 55.99 5.97L55.99 5.97L55.99 5.97Q56.28 5.68 56.69 5.68L56.69 5.68L56.69 5.68Q57.09 5.68 57.38 5.97L57.38 5.97L57.38 5.97Q57.67 6.26 57.67 6.66L57.67 6.66L57.67 6.66Q57.67 7.07 57.38 7.36L57.38 7.36L57.38 7.36Q57.09 7.64 56.69 7.64L56.69 7.64L56.69 7.64Q56.28 7.64 55.99 7.36L55.99 7.36L55.99 7.36Q55.71 7.07 55.71 6.66ZM53.38 9.74L53.38 8.74L57.25 8.74L57.25 17.39L57.25 17.39Q57.25 17.86 56.94 18.17L56.94 18.17L56.94 18.17Q56.64 18.48 56.17 18.48L56.17 18.48L53.05 18.48L53.05 17.47L55.78 17.47L55.78 17.47Q56.15 17.47 56.15 17.05L56.15 17.05L56.15 9.74L53.38 9.74ZM66.23 14.59L66.23 14.50L66.07 14.50L66.07 14.50Q65.73 15.20 65.13 15.54L65.13 15.54L65.13 15.54Q64.54 15.88 63.88 15.88L63.88 15.88L63.88 15.88Q63.20 15.88 62.61 15.64L62.61 15.64L62.61 15.64Q62.02 15.41 61.58 14.96L61.58 14.96L61.58 14.96Q61.14 14.50 60.89 13.85L60.89 13.85L60.89 13.85Q60.63 13.19 60.63 12.32L60.63 12.32L60.63 12.10L60.63 12.10Q60.63 11.24 60.89 10.58L60.89 10.58L60.89 10.58Q61.14 9.93 61.58 9.47L61.58 9.47L61.58 9.47Q62.02 9.02 62.61 8.78L62.61 8.78L62.61 8.78Q63.20 8.54 63.85 8.54L63.85 8.54L63.85 8.54Q64.57 8.54 65.15 8.86L65.15 8.86L65.15 8.86Q65.73 9.17 66.07 9.83L66.07 9.83L66.23 9.83L66.23 8.74L67.33 8.74L67.33 14.25L67.33 14.25Q67.33 14.67 67.70 14.67L67.70 14.67L68.05 14.67L68.05 15.68L67.31 15.68L67.31 15.68Q66.84 15.68 66.53 15.37L66.53 15.37L66.53 15.37Q66.23 15.06 66.23 14.59L66.23 14.59ZM63.99 14.84L63.99 14.84L63.99 14.84Q64.48 14.84 64.90 14.66L64.90 14.66L64.90 14.66Q65.31 14.48 65.60 14.14L65.60 14.14L65.60 14.14Q65.90 13.80 66.07 13.33L66.07 13.33L66.07 13.33Q66.23 12.87 66.23 12.29L66.23 12.29L66.23 12.12L66.23 12.12Q66.23 11.56 66.07 11.09L66.07 11.09L66.07 11.09Q65.90 10.63 65.60 10.29L65.60 10.29L65.60 10.29Q65.30 9.95 64.88 9.77L64.88 9.77L64.88 9.77Q64.47 9.58 63.99 9.58L63.99 9.58L63.99 9.58Q63.50 9.58 63.10 9.76L63.10 9.76L63.10 9.76Q62.69 9.94 62.39 10.27L62.39 10.27L62.39 10.27Q62.09 10.60 61.92 11.07L61.92 11.07L61.92 11.07Q61.75 11.54 61.75 12.10L61.75 12.10L61.75 12.32L61.75 12.32Q61.75 13.51 62.38 14.17L62.38 14.17L62.38 14.17Q63.00 14.84 63.99 14.84ZM75.17 12.96L76.26 13.22L76.26 13.22Q76.15 13.79 75.87 14.28L75.87 14.28L75.87 14.28Q75.60 14.77 75.18 15.13L75.18 15.13L75.18 15.13Q74.76 15.48 74.20 15.68L74.20 15.68L74.20 15.68Q73.64 15.88 72.95 15.88L72.95 15.88L72.95 15.88Q72.23 15.88 71.58 15.64L71.58 15.64L71.58 15.64Q70.92 15.40 70.43 14.95L70.43 14.95L70.43 14.95Q69.94 14.49 69.66 13.83L69.66 13.83L69.66 13.83Q69.37 13.17 69.37 12.32L69.37 12.32L69.37 12.15L69.37 12.15Q69.37 11.31 69.66 10.64L69.66 10.64L69.66 10.64Q69.94 9.97 70.43 9.51L70.43 9.51L70.43 9.51Q70.92 9.04 71.58 8.79L71.58 8.79L71.58 8.79Q72.23 8.54 72.95 8.54L72.95 8.54L72.95 8.54Q73.61 8.54 74.17 8.74L74.17 8.74L74.17 8.74Q74.73 8.93 75.16 9.29L75.16 9.29L75.16 9.29Q75.59 9.65 75.86 10.14L75.86 10.14L75.86 10.14Q76.13 10.63 76.23 11.20L76.23 11.20L75.14 11.45L75.14 11.45Q75.10 11.09 74.94 10.74L74.94 10.74L74.94 10.74Q74.77 10.40 74.50 10.14L74.50 10.14L74.50 10.14Q74.23 9.88 73.84 9.73L73.84 9.73L73.84 9.73Q73.44 9.58 72.93 9.58L72.93 9.58L72.93 9.58Q72.42 9.58 71.98 9.77L71.98 9.77L71.98 9.77Q71.54 9.95 71.20 10.30L71.20 10.30L71.20 10.30Q70.87 10.64 70.68 11.12L70.68 11.12L70.68 11.12Q70.49 11.59 70.49 12.15L70.49 12.15L70.49 12.32L70.49 12.32Q70.49 12.91 70.68 13.38L70.68 13.38L70.68 13.38Q70.87 13.85 71.20 14.17L71.20 14.17L71.20 14.17Q71.54 14.49 71.99 14.66L71.99 14.66L71.99 14.66Q72.44 14.84 72.95 14.84L72.95 14.84L72.95 14.84Q73.47 14.84 73.86 14.68L73.86 14.68L73.86 14.68Q74.24 14.52 74.52 14.26L74.52 14.26L74.52 14.26Q74.79 14 74.95 13.66L74.95 13.66L74.95 13.66Q75.11 13.33 75.17 12.96L75.17 12.96ZM80.12 5.88L80.12 11.62L80.36 11.62L83.01 8.74L84.35 8.74L84.35 8.82L81.47 12.00L81.47 12.25L84.69 15.60L84.69 15.68L83.34 15.68L80.39 12.63L80.12 12.63L80.12 15.68L79.03 15.68L79.03 5.88L80.12 5.88Z"></path></g><defs data-v-fde0c5aa=""><!----></defs><g data-v-fde0c5aa="" id="03286948-fdd8-418d-acd8-1e451213af6b" stroke="none" fill="#BBBCD8" transform="matrix(0.0009059301143337862,0,0,0.0009059301143337862,39.91675152501845,122.82891603854483)"><path d="M9422 13476c-138-172-111-423 61-561s423-111 561 61l1563 1935 5 7c82 98 178 177 281 234 129 72 267 109 397 105 114-3 223-38 311-111 51-42 98-98 137-169 470-847 951-1636 1596-2344 654-718 1470-1346 2598-1855 188-85 338-165 418-263 66-80 98-199 85-389-9-130-50-265-121-395-76-139-183-272-320-392-309-270-748-548-1243-861-1162-734-2615-1653-3703-3268l-17-25c-193-287-443-659-741-607-186 33-379 199-559 414-213 254-397 568-539 836-248 468-446 855-641 1238-1513 2959-2901 5671-7567 9383 997 1272 2113 2556 3361 3665 1223 1087 2574 2004 4063 2572 64-459 115-916 166-1369 219-1967 430-3862 1659-5654-85-70-165-150-238-238-4-4-8-9-12-14l-1563-1935zm20454 4189l1038 780c112 8 224 16 336 26l1155-612c165-87 364-47 483 86l895 924c112 26 224 52 335 80l1231-422c180-62 373 12 469 166l735 1046c107 43 213 87 319 132l1095-192c1008-1115 1970-2257 2871-3425 1002-1299 1924-2627 2747-3983-259-157-540-305-846-443-286-129-525-266-706-485-195-236-294-532-266-949 16-244 91-490 218-724 120-220 287-429 495-611 358-313 821-606 1343-936 1099-694 2473-1563 3465-3037l17-25c320-475 735-1092 1541-950 400 70 745 344 1034 689 255 305 469 668 632 976 198 374 422 813 644 1247 1491 2915 2856 5584 7546 9271 124 98 211 163 293 223 771 573 1161 864 734 2167-421 1283-1769 2931-3312 4316-1584 1422-3397 2589-4645 2823-638 120-1027-2-1302-301-247-269-342-635-440-1085-199-918-299-1824-399-2715-211-1899-415-3728-1588-5384-117 26-236 37-353 34-154-4-305-32-448-87-728 1023-1604 2095-2594 3200-956 1068-2004 2154-3116 3247 81 68 162 137 242 207l1294 183c183 25 320 171 341 347l183 1288c73 84 145 169 217 254l1250 384c180 55 292 226 281 406l-21 1285c61 97 120 194 179 292l1170 572c163 80 247 256 217 426h1l-224 1282c45 106 89 213 132 320l1064 747c149 105 204 292 148 456l-422 1231c28 111 55 223 80 335l935 905c130 126 155 319 75 472l-612 1155c10 112 18 223 26 336l785 1045c110 147 104 346-5 484l-780 1038c-8 112-16 224-26 336l612 1155c87 165 47 364-86 483l-924 895c-9 41-19 81-28 121 2041 1711 3795 3308 5100 4799 1343 1535 2213 2966 2438 4305 48 172 70 340 69 504-5 539-268 970-698 1310-382 303-897 529-1472 694-1069 307-2375 412-3382 402h-12c-2009-19-2507-24-3359-2129-291-718-557-1461-831-2226-71-197-142-396-214-595-50 79-128 139-219 167l-1250 384c-72 85-144 170-217 254l-183 1294c-25 183-171 320-347 341l-1288 183c-84 73-169 145-254 217l-384 1250c-55 180-226 292-406 281l-1285-21c-97 61-194 120-292 179l-572 1170c-80 163-256 247-426 217v1l-1282-224c-106 45-213 89-320 132l-747 1064c-105 149-292 204-456 148l-1231-422c-111 28-223 55-335 80l-905 935c-126 130-319 155-472 75l-1155-612c-112 10-223 18-335 26l-1045 785c-147 110-346 104-484-5l-1039-781c-112-8-224-16-335-26l-1155 612c-165 87-364 47-483-86l-894-924c-112-26-224-53-335-80l-1231 422c-180 62-373-12-469-166l-735-1046c-107-43-214-87-320-132l-1282 224c-191 33-374-75-442-249l-558-1139c-98-59-196-119-292-179l-1303 21c-181 3-337-116-387-281l-384-1250c-85-72-170-144-254-217l-1294-183c-183-25-320-171-341-347l-183-1288c-73-84-146-169-217-254l-732-225c-71 197-142 395-212 592-274 765-540 1509-831 2226-853 2105-1350 2110-3359 2129h-12c-1007 9-2313-95-3382-402-574-165-1089-391-1472-694-430-341-693-771-698-1310-2-163 21-331 69-504 216-1286 1026-2655 2277-4120 1102-1289 2551-2660 4239-4116l335-977c-28-112-55-223-80-336l-935-905c-130-126-155-319-75-472l612-1155c-10-112-18-224-26-336l-785-1044c-110-147-104-346 5-484l781-1039c8-112 16-224 26-336l-612-1155c-87-165-47-364 86-483l924-894c26-112 53-224 80-335l-422-1231c-62-180 12-373 166-469l1046-735c43-107 87-214 132-320l-224-1282c-33-191 75-374 249-442l1139-558c59-98 119-196 179-292l-21-1303c-3-181 116-337 281-387l1250-384c72-85 144-170 217-254l183-1294c25-183 171-320 347-341l1288-183c84-73 169-145 254-217l243-791c-933-931-1817-1856-2633-2768-990-1106-1866-2178-2594-3200-143 55-294 83-448 87-117 3-236-9-353-34-1173 1656-1377 3485-1588 5384-99 891-200 1797-399 2715-97 450-193 816-440 1085-275 299-664 420-1302 301-1248-234-3061-1401-4645-2823-1543-1386-2891-3033-3312-4316-427-1303-37-1593 734-2167 81-60 169-126 293-223 4689-3686 6054-6355 7546-9271 222-434 447-873 644-1247 163-308 377-672 632-976 289-344 634-618 1034-689 806-142 1221 475 1541 951l17 25c992 1474 2367 2342 3465 3037 522 330 985 623 1343 936 208 182 375 390 495 611 127 233 202 480 218 724 28 417-72 712-266 949-180 219-420 356-706 485-307 138-588 286-846 443 823 1356 1745 2684 2747 3983 1030 1336 2140 2637 3309 3905 79-33 158-66 238-98l747-1064c105-149 292-204 456-148l1231 422c111-28 223-55 336-80l905-935c126-130 319-155 472-75l1155 612c112-10 224-18 336-26l1044-785c147-110 346-104 484 5zm8807 2411l470 961c98 59 196 119 293 180l1303-21c181-3 337 116 387 281l124 405c1011-1002 1951-1980 2794-2922 971-1085 1831-2138 2546-3144 7-10 14-19 22-28-21-32-41-64-60-98-444-799-895-1541-1489-2194-247-271-521-528-831-769-833 1370-1764 2709-2774 4018-871 1130-1804 2241-2786 3332zm9285 22429l41 118c62 180-12 373-166 469l-1046 735c-43 107-87 214-132 320l224 1282c33 191-75 374-249 442l-1139 557c-10 16-19 32-29 48 290 740 536 1426 775 2095 273 764 539 1505 818 2195 653 1613 1045 1617 2625 1632h12c942 9 2163-88 3157-374 484-139 906-320 1197-551 244-193 392-422 395-692 1-87-13-184-44-292h1c-4-15-8-31-10-47-190-1187-998-2500-2256-3939-1089-1245-2514-2577-4170-3997zm-33981 5743c-47-71-70-156-65-244l21-1285c-61-97-120-194-179-292l-1170-572c-163-80-247-256-217-426h-1l224-1282c-45-106-89-212-132-319l-878-616c-1544 1344-2868 2609-3881 3794-1170 1369-1920 2623-2102 3759-3 16-6 31-10 47h1c-31 108-45 205-44 292 3 270 151 499 395 692 291 231 713 411 1197 551 994 286 2215 383 3157 374h12c1580-15 1972-19 2625-1632 279-690 545-1431 818-2195 76-212 152-426 231-644zm4405-27036c45-14 92-19 140-16l1285 21c97-61 194-121 292-179l572-1170c80-163 256-247 426-217v-1l136 24c-955-1066-1864-2149-2713-3251-1010-1309-1941-2649-2774-4018-310 241-583 498-831 769-595 653-1046 1394-1489 2194-19 34-39 67-60 98 8 9 15 18 22 28 715 1007 1575 2059 2546 3144 746 833 1567 1695 2446 2576zm12407-1857l-167-126c-331-18-664-28-1000-28s-669 10-1001 28l-147 110c-121 103-296 127-445 49l-187-99c-668 67-1325 170-1969 309l-130 135c-103 122-275 175-435 120l-205-70c-645 170-1275 375-1888 613l-113 161c-84 133-243 210-407 181l-214-38c-609 269-1201 571-1772 905l-87 178c-63 141-206 239-370 237l-212-3c-561 362-1100 754-1615 1175l-57 185c-40 151-167 270-331 293l-205 29c-249 222-491 451-727 687s-465 478-687 727l-29 205c-21 149-125 280-278 327l-200 61c-421 515-814 1054-1175 1615l3 212c2 149-80 294-223 364l-191 93c-333 571-636 1162-905 1772l38 214c26 148-33 303-164 395l-178 125c-238 614-443 1244-613 1888l70 205h-1c48 141 15 304-99 415l-155 150c-139 644-243 1301-309 1969l99 187h-1c69 132 62 298-34 425l-125 167c-19 331-28 665-28 1001s9 669 28 1000l111 147c103 121 127 296 49 445l-99 187c67 668 170 1325 309 1968l135 130c122 103 175 275 120 435l-70 206c170 644 375 1275 613 1888l161 113c133 84 210 243 181 407l-37 214c231 523 486 1033 765 1528l2764-1638c-1158-2083-1818-4480-1818-7032 0-186 151-338 338-338 186 0 338 151 338 338 0 3816 1547 7270 4047 9770s5955 4047 9770 4047c1578 0 3094-264 4506-751 1466-505 2819-1249 4012-2185 146-114 358-88 472 58s88 358-58 472c-1254 983-2673 1764-4207 2293-1481 511-3071 788-4725 788-4002 0-7625-1622-10247-4245-753-753-1424-1590-1998-2494l-2461 2105c310 462 642 909 994 1339l185 57c151 40 270 167 293 331l29 206c222 249 451 491 687 726 236 236 478 465 727 687l205 29c149 21 280 125 327 278l61 200c515 421 1054 814 1615 1175l212-3c149-2 294 80 364 223l93 191c571 333 1162 636 1772 905l214-38c148-26 303 33 395 164l125 178c614 238 1244 443 1888 613l205-70v1c141-48 304-15 415 99l150 155c644 139 1301 243 1969 309l187-99v1c132-69 298-62 425 34l167 125c331 19 665 28 1001 28s669-10 1001-28l147-110c121-103 296-127 445-49l187 99c668-67 1325-170 1969-309l130-135c103-122 275-175 435-120l205 70c645-170 1275-375 1888-613l113-161c84-133 243-210 407-181l214 38c609-269 1201-572 1772-905l87-178c63-141 206-239 370-237l212 3c561-362 1100-754 1615-1175l57-185c40-151 167-270 331-293l205-29c249-222 491-451 727-687s465-478 687-727l29-206c14-98 64-188 140-252l-5226-4741c-231 286-477 559-737 818-1897 1897-4517 3070-7411 3070-152 0-275-123-275-275s123-275 275-275c2742 0 5225-1112 7022-2909s2909-4280 2909-7022c0-152 123-275 275-275s275 123 275 275c0 2211-685 4262-1853 5952l5800 4309c158-222 312-448 460-678l-3-212c-2-149 80-294 223-364l191-93c333-571 636-1162 905-1772l-38-214c-26-148 33-303 164-395l178-125c238-613 443-1243 613-1888l-71-206h1c-48-141-15-304 99-415l155-150c139-644 243-1301 309-1968l-99-188h1c-69-132-62-298 34-425l125-167c18-331 28-665 28-1000 0-336-10-669-28-1001l-110-147c-103-121-127-296-49-445l99-187c-67-668-170-1325-309-1969l-135-130c-122-103-175-275-120-435l70-205c-170-645-375-1275-613-1888l-161-113c-133-84-210-243-181-407l38-214c-269-609-572-1201-905-1772l-178-87c-141-63-239-206-237-370l3-212c-362-561-754-1100-1175-1615l-185-57c-151-40-270-167-293-331l-29-205c-222-249-451-491-687-727s-478-465-726-687l-206-29c-149-21-280-125-327-278l-62-200c-515-421-1054-813-1615-1175l-212 3c-149 2-294-80-364-223l-93-191c-571-333-1162-636-1771-905l-215 38c-148 26-303-33-395-164l-60-85-1237 2898c1896 735 3599 1857 5012 3270 2623 2623 4245 6246 4245 10247 0 925-88 1833-255 2716-172 905-426 1779-756 2611-68 173-264 258-438 190-173-68-258-264-190-438 316-798 559-1630 721-2487 159-837 242-1703 242-2592 0-3816-1547-7270-4047-9770-1352-1352-2983-2425-4799-3126l-1312 3072c70 26 139 53 208 80 1243 494 2369 1218 3324 2120 110 104 116 277 12 388-104 110-277 116-388 12-907-856-1974-1543-3150-2010-1132-450-2369-697-3665-697-2742 0-5225 1112-7022 2909s-2909 4280-2909 7022c0 1331 260 2598 733 3754 491 1202 1211 2286 2107 3200 106 108 105 282-3 388s-282 105-388-3c-944-963-1704-2108-2223-3378-500-1224-776-2561-776-3961 0-2894 1173-5515 3070-7411 1897-1897 4517-3070 7411-3070 998 0 1964 140 2881 402l1083-3161c-1256-375-2586-577-3964-577-2654 0-5132 747-7235 2042-2176 1340-3952 3266-5109 5559-84 166-286 233-452 149s-233-286-149-452c1213-2403 3075-4423 5357-5828 2209-1360 4808-2145 7588-2145 1454 0 2858 214 4183 613l1042-3040c-233-72-468-139-705-201l-205 70v-1c-141 48-304 15-415-99l-150-155c-644-139-1301-243-1969-309l-187 99v-1c-132 69-298 62-425-34zm27609-2277c-1015 1294-2151 2602-3423 3732-1293 1148-2727 2115-4318 2703 42 253 89 506 144 759 71 330 136 593 246 713 82 90 247 117 568 57 1103-207 2769-1296 4258-2633 1452-1304 2712-2824 3087-3969 249-760 14-934-450-1279-37-27-74-55-112-83zm-7817 5930c1489-568 2839-1485 4063-2572 1248-1109 2364-2393 3361-3665-4667-3712-6054-6424-7567-9383-196-382-393-769-641-1238-142-268-326-582-539-836-180-214-373-381-559-414-297-52-548 320-741 607l-17 25c-1087 1615-2541 2534-3703 3268-495 313-934 590-1243 861-137 119-244 253-320 392-71 130-112 265-121 395-13 191 20 310 85 389 80 97 230 178 418 263 1128 509 1944 1137 2598 1855 645 708 1125 1496 1596 2344 39 71 86 127 137 169 89 72 197 108 311 111 130 3 268-34 397-105 103-57 200-136 281-234l5-7 1563-1935c138-172 389-199 561-61s199 389 61 561l-1563 1935c-4 5-8 9-12 14-73 88-153 167-238 238 1230 1792 1441 3687 1659 5654 50 453 101 910 166 1369zM1593 16755c-37 28-75 56-112 83-464 345-699 520-450 1279 375 1145 1635 2665 3087 3969 1488 1336 3155 2426 4258 2633 320 60 485 33 568-57 110-120 175-383 246-713 55-254 102-507 144-759-1591-588-3025-1555-4318-2703-1272-1130-2408-2437-3423-3732zm25880 20149c0 83-67 150-150 150s-150-67-150-150c0-679 275-1294 720-1739s1060-720 1739-720 1294 275 1739 720 720 1060 720 1739-275 1294-720 1739-1060 720-1739 720c-83 0-150-67-150-150s67-150 150-150c596 0 1136-242 1527-632 391-391 632-930 632-1527 0-596-242-1136-632-1527-391-391-930-632-1527-632-596 0-1136 242-1527 632-391 391-632 930-632 1527zm2159-6045c-117 0-213-95-213-213 0-117 95-213 213-213 1787 0 3404 724 4575 1895s1895 2788 1895 4575c0 458-48 907-140 1342-94 444-234 872-414 1280-47 107-172 155-279 108s-155-172-108-279c168-378 298-778 386-1195 85-403 130-823 130-1255 0-1669-677-3181-1771-4275s-2605-1771-4275-1771zm3169 11195c99-61 230-31 291 69 61 99 31 230-69 291-502 310-1049 552-1628 716-562 159-1153 244-1763 244-1787 0-3404-724-4575-1895s-1895-2788-1895-4575c0-986 221-1921 617-2759 410-869 1009-1632 1743-2237 90-74 224-61 298 29s61 224-29 298c-685 565-1244 1278-1628 2091-369 781-575 1655-575 2578 0 1669 677 3181 1771 4275s2605 1771 4275 1771c573 0 1126-79 1649-227 542-153 1052-380 1520-668z"></path></g><defs data-v-fde0c5aa=""><!----></defs><g data-v-fde0c5aa="" id="3757769e-6f2a-4e03-9077-56d4146d5f5f" fill="#DDDDDD" transform="matrix(0.6038384895644469,0,0,0.6038384895644469,106.71559501869594,159.0780793218998)"><path d="M4.69 13.94C5.89 13.94 6.82 13.48 7.39 12.89L7.39 9.14L4.58 9.14L4.58 9.84L6.59 9.84L6.59 12.56C6.19 12.95 5.50 13.20 4.75 13.20C2.80 13.20 1.67 11.61 1.67 9.13C1.67 6.66 2.88 5.11 4.82 5.11C5.75 5.11 6.34 5.50 6.82 6.01L7.29 5.46C6.80 4.94 6.02 4.37 4.82 4.37C2.42 4.37 0.78 6.19 0.78 9.13C0.78 12.11 2.39 13.94 4.69 13.94ZM19.60 13.94C21.63 13.94 23.07 12.07 23.07 9.11C23.07 6.20 21.63 4.37 19.60 4.37C17.57 4.37 16.13 6.19 16.13 9.11C16.13 12.07 17.57 13.94 19.60 13.94ZM19.60 13.20C18.03 13.20 16.98 11.59 16.98 9.11C16.98 6.65 18.03 5.11 19.60 5.11C21.17 5.11 22.22 6.65 22.22 9.11C22.22 11.59 21.17 13.20 19.60 13.20ZM35 13.94C37.03 13.94 38.47 12.07 38.47 9.11C38.47 6.20 37.03 4.37 35 4.37C32.97 4.37 31.53 6.19 31.53 9.11C31.53 12.07 32.97 13.94 35 13.94ZM35 13.20C33.43 13.20 32.38 11.59 32.38 9.11C32.38 6.65 33.43 5.11 35 5.11C36.57 5.11 37.62 6.65 37.62 9.11C37.62 11.59 36.57 13.20 35 13.20ZM47.50 13.78L49.69 13.78C52.47 13.78 53.84 11.97 53.84 9.11C53.84 6.27 52.47 4.54 49.64 4.54L47.50 4.54ZM48.31 13.09L48.31 5.22L49.59 5.22C51.93 5.22 52.99 6.75 52.99 9.11C52.99 11.49 51.93 13.09 49.59 13.09ZM79.02 13.78L84.56 13.78L84.56 13.06L79.83 13.06L79.83 4.54L79.02 4.54ZM96.60 13.94C98.63 13.94 100.07 12.07 100.07 9.11C100.07 6.20 98.63 4.37 96.60 4.37C94.57 4.37 93.13 6.19 93.13 9.11C93.13 12.07 94.57 13.94 96.60 13.94ZM96.60 13.20C95.03 13.20 93.98 11.59 93.98 9.11C93.98 6.65 95.03 5.11 96.60 5.11C98.17 5.11 99.22 6.65 99.22 9.11C99.22 11.59 98.17 13.20 96.60 13.20ZM112.00 13.94C114.03 13.94 115.47 12.07 115.47 9.11C115.47 6.20 114.03 4.37 112.00 4.37C109.97 4.37 108.53 6.19 108.53 9.11C108.53 12.07 109.97 13.94 112.00 13.94ZM112.00 13.20C110.43 13.20 109.38 11.59 109.38 9.11C109.38 6.65 110.43 5.11 112.00 5.11C113.57 5.11 114.62 6.65 114.62 9.11C114.62 11.59 113.57 13.20 112.00 13.20ZM124.73 13.78L125.57 13.78L125.57 10.67L127.36 8.62L130.30 13.78L131.22 13.78L127.90 7.98L130.87 4.54L129.91 4.54L125.61 9.48L125.57 9.48L125.57 4.54L124.73 4.54ZM140.04 13.78L145.56 13.78L145.56 13.06L143.22 13.06L143.22 5.24L145.56 5.24L145.56 4.54L140.04 4.54L140.04 5.24L142.38 5.24L142.38 13.06L140.04 13.06ZM155.25 13.78L156.03 13.78L156.03 8.36C156.03 7.46 155.95 6.55 155.93 5.64L155.95 5.64L156.93 7.49L160.30 13.78L161.15 13.78L161.15 4.54L160.37 4.54L160.37 9.90C160.37 10.82 160.45 11.77 160.47 12.66L160.45 12.66L156.10 4.54L155.25 4.54ZM174.09 13.94C175.29 13.94 176.22 13.48 176.79 12.89L176.79 9.14L173.98 9.14L173.98 9.84L175.99 9.84L175.99 12.56C175.59 12.95 174.90 13.20 174.15 13.20C172.20 13.20 171.07 11.61 171.07 9.13C171.07 6.66 172.28 5.11 174.22 5.11C175.15 5.11 175.74 5.50 176.22 6.01L176.69 5.46C176.20 4.94 175.42 4.37 174.22 4.37C171.82 4.37 170.18 6.19 170.18 9.13C170.18 12.11 171.79 13.94 174.09 13.94ZM202.22 13.78L207.76 13.78L207.76 13.06L203.03 13.06L203.03 4.54L202.22 4.54ZM219.80 13.94C221.83 13.94 223.27 12.07 223.27 9.11C223.27 6.20 221.83 4.37 219.80 4.37C217.77 4.37 216.33 6.19 216.33 9.11C216.33 12.07 217.77 13.94 219.80 13.94ZM219.80 13.20C218.23 13.20 217.18 11.59 217.18 9.11C217.18 6.65 218.23 5.11 219.80 5.11C221.37 5.11 222.42 6.65 222.42 9.11C222.42 11.59 221.37 13.20 219.80 13.20ZM235.69 13.94C236.89 13.94 237.82 13.48 238.39 12.89L238.39 9.14L235.58 9.14L235.58 9.84L237.59 9.84L237.59 12.56C237.19 12.95 236.50 13.20 235.75 13.20C233.80 13.20 232.67 11.61 232.67 9.13C232.67 6.66 233.88 5.11 235.82 5.11C236.75 5.11 237.34 5.50 237.82 6.01L238.29 5.46C237.80 4.94 237.02 4.37 235.82 4.37C233.42 4.37 231.78 6.19 231.78 9.13C231.78 12.11 233.39 13.94 235.69 13.94ZM250.71 13.94C252.63 13.94 253.85 12.84 253.85 11.40C253.85 10.00 252.88 9.45 251.79 8.95L250.43 8.36C249.69 8.02 248.74 7.64 248.74 6.65C248.74 5.70 249.55 5.11 250.77 5.11C251.73 5.11 252.48 5.47 253.06 6.02L253.53 5.47C252.91 4.84 251.93 4.37 250.77 4.37C249.10 4.37 247.88 5.33 247.88 6.71C247.88 8.05 249.00 8.68 249.89 9.04L251.26 9.63C252.22 10.07 253.01 10.37 253.01 11.47C253.01 12.50 252.14 13.20 250.71 13.20C249.62 13.20 248.63 12.71 247.94 11.97L247.42 12.56C248.19 13.38 249.33 13.94 250.71 13.94Z"></path></g></svg>